<svg width="24" height="24" viewBox="0 0 24 24" fill="none" xmlns="http://www.w3.org/2000/svg">
<path d="M19.3789 15.106C20.0275 13.5644 20.1768 11.8583 19.8056 10.2276C19.4345 8.59678 18.5617 7.1233 17.3098 6.01424C16.0579 4.90517 14.49 4.21629 12.8264 4.04441C11.1627 3.87253 9.48709 4.2263 8.03492 5.056L7.04192 3.319C8.5596 2.45185 10.2781 1.99766 12.026 2.00169C13.7739 2.00573 15.4903 2.46785 17.0039 3.342C21.4939 5.935 23.2139 11.485 21.1219 16.112L22.4639 16.887L18.2979 19.101L18.1329 14.387L19.3789 15.106ZM4.62892 8.9C3.98007 10.4417 3.83071 12.148 4.20184 13.779C4.57297 15.41 5.44594 16.8836 6.698 17.9927C7.95006 19.1019 9.51824 19.7907 11.1821 19.9624C12.8459 20.1341 14.5217 19.7801 15.9739 18.95L16.9659 20.687C15.4482 21.554 13.7297 22.008 11.9817 22.0038C10.2338 21.9996 8.51749 21.5373 7.00392 20.663C2.51392 18.07 0.793922 12.521 2.88692 7.893L1.54492 7.12L5.70992 4.905L5.87492 9.619L4.62892 8.9ZM13.4189 14.831L10.5899 12.003L7.76192 14.831L6.34692 13.417L10.5899 9.174L13.4179 12.003L16.2469 9.174L17.6609 10.589L13.4189 14.831Z" fill="#F4F6F8"/>
</svg>
