<svg width="24" height="25" viewBox="0 0 24 25" fill="none" xmlns="http://www.w3.org/2000/svg">
<path d="M12.0002 17.5L10.5002 19C9.83708 19.6629 8.93783 20.0353 8.00018 20.0353C7.06254 20.0353 6.16329 19.6629 5.50018 19C4.83726 18.3369 4.46484 17.4376 4.46484 16.5C4.46484 15.5624 4.83726 14.6631 5.50018 14L8.50018 11C9.16329 10.3371 10.0625 9.96466 11.0002 9.96466C11.9378 9.96466 12.8371 10.3371 13.5002 11" stroke="#F4F6F8" stroke-width="2" stroke-linecap="round"/>
<path d="M12 7.5L13.5 6C14.1631 5.33707 15.0624 4.96466 16 4.96466C16.9376 4.96466 17.8369 5.33707 18.5 6C19.1629 6.6631 19.5353 7.56236 19.5353 8.5C19.5353 9.43765 19.1629 10.3369 18.5 11L15.5 14C14.8369 14.6629 13.9376 15.0353 13 15.0353C12.0624 15.0353 11.1631 14.6629 10.5 14" stroke="#F4F6F8" stroke-width="2" stroke-linecap="round"/>
</svg>
