<svg width="24" height="25" viewBox="0 0 24 25" fill="none" xmlns="http://www.w3.org/2000/svg">
<g clip-path="url(#clip0_25895_1625)">
<path d="M17.3438 17.6562C17.8615 17.6562 18.2812 17.2365 18.2812 16.7188C18.2812 16.201 17.8615 15.7812 17.3438 15.7812C16.826 15.7812 16.4062 16.201 16.4062 16.7188C16.4062 17.2365 16.826 17.6562 17.3438 17.6562Z" fill="#F4F6F8"/>
<path d="M21.5625 17.4688C22.0803 17.4688 22.5 17.049 22.5 16.5312V13.0625C22.5 10.9948 20.8177 9.3125 18.75 9.3125H17.6233V6.00622C17.6233 2.97008 15.0999 0.5 11.9983 0.5C8.89664 0.5 6.37327 2.97008 6.37327 6.00622V9.3125H5.25C3.18225 9.3125 1.5 10.9948 1.5 13.0625V20.75C1.5 22.8177 3.18225 24.5 5.25 24.5H18.75C20.8177 24.5 22.5 22.8177 22.5 20.75C22.5 20.2322 22.0803 19.8125 21.5625 19.8125C21.0447 19.8125 20.625 20.2322 20.625 20.75C20.625 21.7839 19.7839 22.625 18.75 22.625H5.25C4.21613 22.625 3.375 21.7839 3.375 20.75V13.0625C3.375 12.0286 4.21613 11.1875 5.25 11.1875H18.75C19.7839 11.1875 20.625 12.0286 20.625 13.0625V16.5312C20.625 17.049 21.0447 17.4688 21.5625 17.4688ZM15.7483 9.3125H8.24827V6.00622C8.24827 4.00395 9.93052 2.375 11.9983 2.375C14.066 2.375 15.7483 4.00395 15.7483 6.00622V9.3125Z" fill="#F4F6F8"/>
<path d="M10.2656 17.6562C10.7834 17.6562 11.2031 17.2365 11.2031 16.7188C11.2031 16.201 10.7834 15.7812 10.2656 15.7812C9.74786 15.7812 9.32812 16.201 9.32812 16.7188C9.32812 17.2365 9.74786 17.6562 10.2656 17.6562Z" fill="#F4F6F8"/>
<path d="M6.75 17.6562C7.26777 17.6562 7.6875 17.2365 7.6875 16.7188C7.6875 16.201 7.26777 15.7812 6.75 15.7812C6.23223 15.7812 5.8125 16.201 5.8125 16.7188C5.8125 17.2365 6.23223 17.6562 6.75 17.6562Z" fill="#F4F6F8"/>
<path d="M13.7812 17.6562C14.299 17.6562 14.7188 17.2365 14.7188 16.7188C14.7188 16.201 14.299 15.7812 13.7812 15.7812C13.2635 15.7812 12.8438 16.201 12.8438 16.7188C12.8438 17.2365 13.2635 17.6562 13.7812 17.6562Z" fill="#F4F6F8"/>
</g>
<defs>
<clipPath id="clip0_25895_1625">
<rect width="24" height="24" fill="white" transform="translate(0 0.5)"/>
</clipPath>
</defs>
</svg>
