<svg width="65" height="64" viewBox="0 0 65 64" fill="none" xmlns="http://www.w3.org/2000/svg">
<path d="M42.4601 42.8C42.4632 40.5731 43.3493 38.4384 44.9239 36.8638C46.4985 35.2892 48.6332 34.4032 50.8601 34.4H57.2601V30.92C57.2101 27.37 54.1701 25.23 50.7801 25.6V17.96C50.7793 17.695 50.6737 17.4411 50.4863 17.2538C50.2989 17.0664 50.045 16.9608 49.7801 16.96H43.1801C43.1786 17.6287 43.1352 18.2967 43.0501 18.96H48.7801V25.6H10.9001C10.0196 25.6 9.1751 25.2502 8.55248 24.6276C7.92986 24.005 7.58008 23.1605 7.58008 22.28C7.58008 21.3995 7.92986 20.555 8.55248 19.9324C9.1751 19.3098 10.0196 18.96 10.9001 18.96H13.3101C13.2242 18.2968 13.1808 17.6287 13.1801 16.96H10.9001C9.48994 16.9626 8.13831 17.524 7.14119 18.5211C6.14407 19.5182 5.58272 20.8699 5.58008 22.28V54.68C5.58272 56.0901 6.14407 57.4418 7.14119 58.4389C8.13831 59.436 9.48994 59.9973 10.9001 60H51.9401C53.3502 59.9973 54.7018 59.436 55.699 58.4389C56.6961 57.4418 57.2574 56.0901 57.2601 54.68V51.2H50.8601C48.6332 51.1968 46.4985 50.3108 44.9239 48.7362C43.3493 47.1616 42.4632 45.0268 42.4601 42.8ZM20.5801 54H12.5801C12.3149 54 12.0605 53.8946 11.873 53.7071C11.6854 53.5196 11.5801 53.2652 11.5801 53C11.5801 52.7348 11.6854 52.4804 11.873 52.2929C12.0605 52.1053 12.3149 52 12.5801 52H20.5801C20.8453 52 21.0996 52.1053 21.2872 52.2929C21.4747 52.4804 21.5801 52.7348 21.5801 53C21.5801 53.2652 21.4747 53.5196 21.2872 53.7071C21.0996 53.8946 20.8453 54 20.5801 54Z" fill="#C4CDD5"/>
<path d="M57.4202 36.4H50.8602C42.3902 36.7 42.3902 48.9 50.8602 49.2H57.4202C57.9502 49.1984 58.458 48.9872 58.8327 48.6125C59.2074 48.2377 59.4187 47.7299 59.4202 47.2V38.4C59.4187 37.8701 59.2074 37.3623 58.8327 36.9875C58.458 36.6128 57.9502 36.4016 57.4202 36.4ZM50.8602 43.8C50.595 43.8 50.3407 43.6946 50.1531 43.5071C49.9656 43.3196 49.8602 43.0652 49.8602 42.8C49.8602 42.5348 49.9656 42.2804 50.1531 42.0929C50.3407 41.9053 50.595 41.8 50.8602 41.8C51.1255 41.8 51.3798 41.9053 51.5674 42.0929C51.7549 42.2804 51.8602 42.5348 51.8602 42.8C51.8602 43.0652 51.7549 43.3196 51.5674 43.5071C51.3798 43.6946 51.1255 43.8 50.8602 43.8ZM16.9702 23.6H27.1802V22.5H25.1802C24.915 22.5 24.6607 22.3946 24.4731 22.2071C24.2856 22.0196 24.1802 21.7652 24.1802 21.5C24.1802 21.2348 24.2856 20.9804 24.4731 20.7929C24.6607 20.6054 24.915 20.5 25.1802 20.5H28.9302C29.2618 20.5 29.5797 20.3683 29.8141 20.1339C30.0485 19.8995 30.1802 19.5815 30.1802 19.25C30.1802 18.9185 30.0485 18.6005 29.8141 18.3661C29.5797 18.1317 29.2618 18 28.9302 18H27.4302C26.5934 17.9989 25.7894 17.674 25.1867 17.0933C24.5839 16.5127 24.2293 15.7214 24.197 14.8851C24.1647 14.0488 24.4572 13.2325 25.0133 12.6071C25.5694 11.9817 26.3459 11.5957 27.1802 11.53V10.84C27.1802 10.5748 27.2856 10.3204 27.4731 10.1329C27.6607 9.94536 27.915 9.84 28.1802 9.84C28.4455 9.84 28.6998 9.94536 28.8873 10.1329C29.0749 10.3204 29.1802 10.5748 29.1802 10.84V11.5H31.1802C31.4455 11.5 31.6998 11.6054 31.8873 11.7929C32.0749 11.9804 32.1802 12.2348 32.1802 12.5C32.1802 12.7652 32.0749 13.0196 31.8873 13.2071C31.6998 13.3946 31.4455 13.5 31.1802 13.5H27.4302C27.0987 13.5 26.7808 13.6317 26.5464 13.8661C26.3119 14.1005 26.1802 14.4185 26.1802 14.75C26.1802 15.0815 26.3119 15.3995 26.5464 15.6339C26.7808 15.8683 27.0987 16 27.4302 16H28.9302C29.7671 16.0011 30.5711 16.326 31.1738 16.9067C31.7765 17.4873 32.1312 18.2786 32.1635 19.1149C32.1958 19.9512 31.9033 20.7675 31.3472 21.3929C30.7911 22.0183 30.0146 22.4043 29.1802 22.47V23.6H39.3802C40.2335 22.1749 40.7944 20.5942 41.0302 18.95C41.3051 17.1003 41.1788 15.2131 40.6598 13.4165C40.1408 11.6199 39.2413 9.95607 38.0223 8.53791C36.8034 7.11975 35.2935 5.98049 33.5953 5.19749C31.8971 4.41449 30.0503 4.00608 28.1802 4C18.2612 3.871 11.8472 15.149 16.9702 23.6Z" fill="#C4CDD5"/>
</svg>
