<svg width="65" height="64" viewBox="0 0 65 64" fill="none" xmlns="http://www.w3.org/2000/svg">
<path d="M56.4428 32.64H47.406C46.5017 32.64 45.6062 32.8181 44.7707 33.1642C43.9352 33.5103 43.176 34.0175 42.5366 34.657C41.8971 35.2965 41.3899 36.0556 41.0438 36.8911C40.6977 37.7266 40.5196 38.6221 40.5196 39.5264C40.5196 40.4307 40.6977 41.3262 41.0438 42.1617C41.3899 42.9972 41.8971 43.7564 42.5366 44.3958C43.176 45.0353 43.9352 45.5425 44.7707 45.8886C45.6062 46.2347 46.5017 46.4128 47.406 46.4128H56.4428C56.934 46.3548 57.3839 46.1095 57.6986 45.7279C58.0134 45.3464 58.1688 44.8581 58.1324 44.3648V34.7072C58.174 34.2108 58.021 33.7176 57.7057 33.3319C57.3904 32.9461 56.9376 32.6981 56.4428 32.64ZM47.3932 42.24C46.8651 42.24 46.3488 42.0833 45.9098 41.7898C45.4708 41.4963 45.1287 41.0791 44.9269 40.591C44.7251 40.103 44.6726 39.5661 44.7761 39.0482C44.8796 38.5303 45.1345 38.0548 45.5083 37.6818C45.8822 37.3088 46.3584 37.0552 46.8765 36.9529C47.3946 36.8507 47.9314 36.9044 48.4189 37.1074C48.9065 37.3104 49.3228 37.6534 49.6153 38.0932C49.9078 38.5329 50.0633 39.0495 50.062 39.5776C50.0603 40.2843 49.7784 40.9615 49.2781 41.4606C48.7777 41.9597 48.0999 42.24 47.3932 42.24ZM18.062 21.856C17.7514 24.1807 17.9061 26.544 18.5169 28.8085C19.1278 31.0729 20.1827 33.1933 21.6204 35.0464L21.6972 35.1488C21.7939 35.2741 21.918 35.3756 22.06 35.4454C22.202 35.5153 22.3581 35.5518 22.5164 35.552C22.6229 35.5507 22.7286 35.5334 22.83 35.5008C23.0299 35.4347 23.205 35.3093 23.3319 35.1412C23.4588 34.9731 23.5315 34.7704 23.5404 34.56C23.6216 32.2422 24.2139 29.971 25.2749 27.9087C26.3359 25.8465 27.8394 24.0441 29.678 22.6304L36.2508 17.5616L39.6812 22.0416C39.7982 22.1956 39.9563 22.3135 40.1372 22.3818C40.3181 22.4502 40.5146 22.4663 40.7042 22.4282C40.8938 22.3902 41.0689 22.2995 41.2094 22.1666C41.3499 22.0338 41.4502 21.864 41.4988 21.6768L42.3884 18.3296H52.1932C53.1867 18.3296 54.1397 18.7239 54.8429 19.4258C55.546 20.1278 55.9419 21.0801 55.9436 22.0736V30.592H47.406C45.0297 30.592 42.7506 31.536 41.0703 33.2163C39.39 34.8967 38.446 37.1757 38.446 39.552C38.446 41.9284 39.39 44.2074 41.0703 45.8877C42.7506 47.568 45.0297 48.512 47.406 48.512H55.9436V57.0496C55.9419 58.0438 55.5462 58.9967 54.8433 59.6997C54.1403 60.4026 53.1873 60.7983 52.1932 60.8H10.5932C9.60907 60.7832 8.67083 60.3809 7.98025 59.6796C7.28967 58.9782 6.90192 58.0339 6.90039 57.0496V22.0352C6.90209 21.0417 7.29796 20.0894 8.00112 19.3874C8.70427 18.6855 9.65723 18.2912 10.6508 18.2912H18.894C18.4952 19.4478 18.2164 20.6424 18.062 21.856ZM21.3836 17.6192C22.4406 15.2675 24.0606 13.2123 26.1004 11.6352L30.4396 8.32001C30.6561 8.15227 30.7986 7.90651 30.8364 7.63521C30.8534 7.5006 30.8435 7.36396 30.8072 7.23322C30.771 7.10247 30.7091 6.98024 30.6252 6.87361L27.8348 3.23841L44.27 3.20001L40.0588 19.0848L37.2748 15.4752C37.192 15.3671 37.0886 15.2764 36.9706 15.2084C36.8525 15.1405 36.7222 15.0966 36.5871 15.0794C36.452 15.0621 36.3148 15.0718 36.1835 15.1079C36.0522 15.144 35.9293 15.2057 35.822 15.2896L28.43 20.9856C25.0293 23.6077 22.6887 27.3685 21.838 31.5776C20.7063 29.4532 20.0742 27.0986 19.9899 24.693C19.9056 22.2875 20.3713 19.8944 21.3516 17.696C21.3595 17.6693 21.3702 17.6436 21.3836 17.6192Z" fill="#C4CDD5"/>
</svg>
