<svg width="65" height="64" viewBox="0 0 65 64" fill="none" xmlns="http://www.w3.org/2000/svg">
<g clip-path="url(#clip0_25895_1658)">
<path d="M43.875 22.75C32.5024 22.75 23.25 32.0024 23.25 43.375C23.25 54.7476 32.5024 64 43.875 64C55.2476 64 64.5 54.7476 64.5 43.375C64.5 32.0024 55.2476 22.75 43.875 22.75ZM43.875 41.5C46.9767 41.5 49.5 44.0233 49.5 47.125C49.5 49.5662 47.9277 51.628 45.75 52.4046V56.5H42V52.4046C39.8223 51.628 38.25 49.5662 38.25 47.125H42C42 48.1595 42.8405 49 43.875 49C44.9095 49 45.75 48.1595 45.75 47.125C45.75 46.0905 44.9095 45.25 43.875 45.25C40.7733 45.25 38.25 42.7267 38.25 39.625C38.25 37.1838 39.8223 35.122 42 34.3454V30.25H45.75V34.3454C47.9277 35.122 49.5 37.1838 49.5 39.625H45.75C45.75 38.5905 44.9095 37.75 43.875 37.75C42.8405 37.75 42 38.5905 42 39.625C42 40.6595 42.8405 41.5 43.875 41.5ZM21.375 22.75C32.94 22.75 42 17.808 42 11.5C42 5.192 32.94 0 21.375 0C9.81 0 0.5 5.192 0.5 11.5C0.5 17.808 9.81 22.75 21.375 22.75ZM0.5 42.1949V45.25C0.5 51.558 9.81 56.5 21.375 56.5C22.031 56.5 22.6666 56.4396 23.3125 56.408C21.8546 54.1174 20.7923 51.5979 20.17 48.9549C11.8069 48.724 4.54525 46.1541 0.5 42.1949ZM19.5901 45.1545C19.5471 44.5648 19.5 43.9756 19.5 43.375C19.5 41.4204 19.7561 39.5286 20.1929 37.7059C11.8194 37.479 4.54887 34.9077 0.5 30.9449V34C0.5 39.9734 8.90775 44.6677 19.5901 45.1545ZM21.375 34L21.3808 33.9997C22.6089 31.0648 24.3979 28.3976 26.6474 26.1478C24.954 26.3618 23.204 26.5 21.375 26.5C12.4729 26.5 4.74075 23.8454 0.5 19.6949V22.75C0.5 29.058 9.81 34 21.375 34Z" fill="#C4CDD5"/>
</g>
<defs>
<clipPath id="clip0_25895_1658">
<rect width="64" height="64" fill="white" transform="translate(0.5)"/>
</clipPath>
</defs>
</svg>
