<svg width="60" height="50" viewBox="0 0 60 50" fill="none" xmlns="http://www.w3.org/2000/svg">
<path d="M59.7181 16.7512V27.6008C59.7181 28.7217 58.8299 29.61 57.709 29.61H48.8897C47.9974 29.6128 47.1133 29.4391 46.2884 29.0989C45.4634 28.7587 44.7139 28.2588 44.0829 27.6278C43.452 26.9968 42.952 26.2473 42.6118 25.4224C42.2716 24.5975 42.0979 23.7134 42.1007 22.8211V21.531C42.0979 20.6386 42.2716 19.7546 42.6118 18.9297C42.952 18.1047 43.452 17.3552 44.0829 16.7242C44.7139 16.0933 45.4634 15.5933 46.2884 15.2531C47.1133 14.9129 47.9974 14.7392 48.8897 14.742H57.709C58.8299 14.742 59.7181 15.6303 59.7181 16.7512ZM23.0663 30.879C23.0663 32.4398 20.9514 33.8082 17.7663 34.5611C15.8033 35.0203 13.7928 35.2453 11.7768 35.2315C9.58998 35.2315 7.53427 34.9862 5.80214 34.5611C2.61493 33.8082 0.5 32.4398 0.5 30.879C0.5 28.4701 5.55046 26.5116 11.7768 26.5116C18.0159 26.5138 23.0663 28.4701 23.0663 30.879ZM18.4981 37.6489C16.4804 38.1395 14.1477 38.4039 11.7747 38.4039C9.41444 38.4039 7.0859 38.1395 5.04499 37.6425C3.06541 37.1751 1.60188 36.5428 0.5 35.8491V38.2559C0.5 39.8167 2.60013 41.1724 5.77041 41.938C7.50254 42.3758 9.57306 42.6232 11.7747 42.6232C13.9912 42.6232 16.0469 42.3758 17.7938 41.938C20.9662 41.1724 23.0642 39.8167 23.0642 38.2559V35.8448C21.9602 36.5428 20.4882 37.1772 18.4981 37.6489ZM18.5404 45.0236C16.5333 45.527 14.1836 45.7956 11.7747 45.7956C9.35734 45.7956 7.014 45.5249 4.99423 45.0152C3.04849 44.5457 1.59554 43.9281 0.5 43.245V45.6349C0.5 47.1957 2.60013 48.5514 5.77041 49.3297C7.50254 49.7548 9.57306 50.0001 11.7747 50.0001C13.9912 50.0001 16.0469 49.7526 17.7938 49.3297C20.9662 48.5492 23.0642 47.1936 23.0642 45.6349V43.2429C21.9645 43.9281 20.503 44.5499 18.5404 45.0236Z" fill="#C4CDD5"/>
<path d="M48.8894 11.5687H57.1588V7.59261C57.1588 3.40504 53.7537 0 49.5661 0H12.4491C8.26149 0 4.85645 3.40504 4.85645 7.59261V24.1398C6.99253 23.6048 9.38452 23.3404 11.7744 23.3404C18.6183 23.3404 25.5701 25.4109 26.2384 30.0892V44.3713H49.5661C53.7537 44.3713 57.1588 40.9663 57.1588 36.7787V32.7815H48.8894C46.2483 32.7787 43.7162 31.7283 41.8487 29.8608C39.9812 27.9933 38.9308 25.4612 38.928 22.8201V21.53C38.9314 18.8891 39.982 16.3574 41.8493 14.49C43.7167 12.6226 46.2485 11.572 48.8894 11.5687ZM26.0777 11.8098H15.171C14.6662 11.8098 14.182 11.6092 13.825 11.2523C13.4681 10.8953 13.2675 10.4112 13.2675 9.90635C13.2675 9.40152 13.4681 8.91738 13.825 8.56041C14.182 8.20345 14.6662 8.00291 15.171 8.00291H26.0756C26.3255 8.00277 26.5731 8.05187 26.8041 8.14739C27.0351 8.24292 27.245 8.38301 27.4218 8.55966C27.5987 8.73632 27.739 8.94607 27.8348 9.17696C27.9306 9.40784 27.9799 9.65533 27.9801 9.90529C27.9802 10.1553 27.9311 10.4028 27.8356 10.6338C27.7401 10.8648 27.6 11.0747 27.4233 11.2515C27.2467 11.4284 27.0369 11.5687 26.806 11.6645C26.5751 11.7603 26.3277 11.8096 26.0777 11.8098Z" fill="#C4CDD5"/>
</svg>
