<svg width="65" height="64" viewBox="0 0 65 64" fill="none" xmlns="http://www.w3.org/2000/svg">
<path fill-rule="evenodd" clip-rule="evenodd" d="M53.2529 29.531C56.8757 33.5456 59.5766 37.0287 61.3554 40.1517C67.8694 51.5894 58.6026 63.2062 46.1922 62.9971C33.7819 63.2062 24.5151 51.5894 31.0291 40.1517C32.8079 37.0287 35.5089 33.5456 39.1316 29.531C39.5745 29.6712 40.0362 29.7424 40.5007 29.7421H51.8836C52.3605 29.7421 52.8205 29.668 53.2529 29.531ZM7.18325 1.00013C4.05737 1.00013 1.5 3.55763 1.5 6.68338V48.2306C1.5 51.3565 4.05737 53.9139 7.18325 53.9139H28.1117C26.0662 49.0262 26.6851 43.7381 29.2914 39.162C29.8237 38.2272 30.4077 37.3009 31.0304 36.3856C30.6702 36.1526 30.431 35.7474 30.431 35.288V33.5895C30.431 32.8699 31.0179 32.283 31.7375 32.283H34.1071C35.1662 30.9811 36.2682 29.7139 37.3711 28.4906C37.0443 28.1806 36.7649 27.8241 36.5421 27.4326H31.7375C31.0179 27.4326 30.431 26.8457 30.431 26.1261V24.4275C30.431 23.7079 31.0179 23.121 31.7375 23.121H36.4487C36.8556 22.3301 37.4834 21.6745 38.2559 21.2336L36.8981 19.876C36.0717 19.0496 35.625 17.984 35.5572 16.8988H9.07762C8.358 16.8988 7.77112 16.3119 7.77112 15.5922V10.4641C7.77112 9.7445 8.358 9.15763 9.07762 9.15763H37.821C38.5406 9.15763 39.1275 9.7445 39.1275 10.4641V12.1082C40.0495 11.8967 41.0301 11.9671 41.9264 12.3348C42.5324 10.8843 43.8469 9.83025 45.3987 9.55863V6.68338C45.3987 3.55763 42.8412 1.00013 39.7155 1.00013H7.18325ZM40.5009 27.7421C39.0974 27.7421 37.9494 26.594 37.9494 25.1906C37.9494 23.7874 39.0975 22.6392 40.5009 22.6392H51.8837C53.2871 22.6392 54.4352 23.7874 54.4352 25.1907C54.4352 26.5939 53.2871 27.7421 51.8837 27.7421H40.5009ZM10.278 23.121H15.1611C15.8807 23.121 16.4676 23.7079 16.4676 24.4275V26.126C16.4676 26.8456 15.8807 27.4325 15.1611 27.4325H10.278C9.55837 27.4325 8.9715 26.8456 8.9715 26.126V24.4275C8.9715 23.7079 9.55837 23.121 10.278 23.121ZM21.0077 41.4449C20.2881 41.4449 19.7012 42.0317 19.7012 42.7514V44.4499C19.7012 45.1695 20.2881 45.7564 21.0077 45.7564H25.8909C26.6105 45.7564 27.1974 45.1695 27.1974 44.4499V42.7514C27.1974 42.0317 26.6105 41.4449 25.8909 41.4449H21.0077ZM10.278 41.4449H15.1611C15.8807 41.4449 16.4676 42.0317 16.4676 42.7514V44.4499C16.4676 45.1695 15.8807 45.7564 15.1611 45.7564H10.278C9.55837 45.7564 8.9715 45.1695 8.9715 44.4499V42.7514C8.9715 42.0317 9.55837 41.4449 10.278 41.4449ZM21.0077 32.2829C20.2881 32.2829 19.7012 32.8697 19.7012 33.5894V35.2879C19.7012 36.0075 20.2881 36.5944 21.0077 36.5944H25.8909C26.6105 36.5944 27.1974 36.0075 27.1974 35.2879V33.5894C27.1974 32.8697 26.6105 32.2829 25.8909 32.2829H21.0077ZM10.278 32.2829H15.1611C15.8807 32.2829 16.4676 32.8697 16.4676 33.5894V35.2879C16.4676 36.0075 15.8807 36.5944 15.1611 36.5944H10.278C9.55837 36.5944 8.9715 36.0075 8.9715 35.2879V33.5894C8.9715 32.8699 9.55837 32.2829 10.278 32.2829ZM21.0077 23.121H25.8909C26.6105 23.121 27.1974 23.7079 27.1974 24.4275V26.126C27.1974 26.8456 26.6105 27.4325 25.8909 27.4325H21.0077C20.2881 27.4325 19.7012 26.8456 19.7012 26.126V24.4275C19.7012 23.7079 20.2881 23.121 21.0077 23.121ZM46.0614 50.9984C45.2946 50.9784 44.5502 50.7707 43.9569 50.3755C43.4199 50.0179 43.0096 49.4947 42.8382 48.8075C42.802 48.66 42.737 48.5211 42.647 48.3987C42.557 48.2763 42.4438 48.1728 42.3139 48.0941C42.1839 48.0155 42.0397 47.9632 41.8895 47.9403C41.7394 47.9173 41.5861 47.9242 41.4386 47.9605C41.2911 47.9968 41.1522 48.0618 41.0298 48.1517C40.9074 48.2417 40.8039 48.3549 40.7253 48.4849C40.6466 48.6149 40.5943 48.759 40.5714 48.9092C40.5485 49.0594 40.5553 49.2126 40.5916 49.3601C40.9152 50.6582 41.6806 51.6397 42.6796 52.3051C43.362 52.7596 44.1545 53.06 44.9844 53.2064V54.1065C44.9875 54.4119 45.1111 54.7038 45.3282 54.9187C45.5453 55.1336 45.8385 55.2541 46.1439 55.2541C46.4494 55.2541 46.7425 55.1336 46.9596 54.9187C47.1768 54.7038 47.3003 54.4119 47.3035 54.1065V53.2285C48.312 53.0747 49.3395 52.7066 50.1462 52.0946C51.1157 51.359 51.7606 50.3056 51.727 48.892C51.7245 48.7497 51.7152 48.6076 51.6991 48.4661C51.5111 46.9171 50.6731 45.9089 49.5619 45.238C48.5859 44.6486 47.4154 44.3551 46.3422 44.179C45.5682 44.0519 44.753 43.8369 44.156 43.4471C43.6934 43.1451 43.3616 42.7079 43.3305 42.0686C43.2969 41.3769 43.5989 40.8187 44.0747 40.4319C44.4475 40.1289 44.923 39.9182 45.4385 39.8145C45.6482 39.7724 45.8611 39.7485 46.0749 39.743C46.1255 39.7461 46.1763 39.7458 46.2269 39.7421C46.5119 39.7462 46.799 39.7829 47.0794 39.8539C47.9414 40.0724 48.7261 40.6405 49.1395 41.6249C49.3871 42.2152 50.0666 42.493 50.6569 42.2454C51.2472 41.9977 51.525 41.3182 51.2774 40.728C50.5496 38.9947 49.1641 37.9932 47.641 37.6072C47.5293 37.5789 47.4167 37.554 47.3035 37.5326V36.6341C47.298 36.3302 47.1735 36.0406 46.9566 35.8276C46.7397 35.6146 46.4479 35.4952 46.1439 35.4952C45.84 35.4952 45.5481 35.6146 45.3313 35.8276C45.1144 36.0406 44.9898 36.3302 44.9844 36.6341V37.55C44.1057 37.7271 43.2807 38.098 42.6162 38.6382C41.595 39.4686 40.9474 40.6742 41.0204 42.1775C41.0936 43.6879 41.8474 44.701 42.8967 45.386C43.8115 45.9831 44.9349 46.2921 45.9709 46.4621C46.8029 46.5987 47.6912 46.8146 48.3661 47.2221C48.906 47.548 49.3115 48.0244 49.3981 48.7381C49.4096 48.8332 49.4159 48.9024 49.4169 48.9465C49.4304 49.514 49.1589 49.9464 48.7511 50.2557C48.2407 50.643 47.524 50.8714 46.8072 50.9584C46.6121 50.982 46.4416 50.9955 46.2971 50.9989L46.2419 50.9999C46.2093 50.9971 46.1766 50.9957 46.1439 50.9957C46.1163 50.9955 46.0888 50.9964 46.0614 50.9984ZM40.49 20.6394L38.3124 18.4617C37.2926 17.442 37.2926 15.7734 38.3124 14.7537C39.1796 13.8864 40.5526 13.7399 41.5846 14.4023C41.968 14.6483 42.4082 14.6875 42.8289 14.5134C43.2495 14.3391 43.533 14.0002 43.6301 13.5551C43.8871 12.3781 44.9409 11.4897 46.1922 11.4895C47.4209 11.4895 48.4926 12.3556 48.7545 13.5551C48.8516 14.0002 49.1351 14.3391 49.5557 14.5134C49.9766 14.6877 50.4167 14.6483 50.7999 14.4023C51.8137 13.7515 53.1874 13.8689 54.0721 14.7535C55.0919 15.7732 55.0919 17.4421 54.0721 18.4617L51.8945 20.6394L51.8836 20.6392H40.5007L40.49 20.6394Z" fill="#C4CDD5"/>
</svg>
