<svg width="65" height="64" viewBox="0 0 65 64" fill="none" xmlns="http://www.w3.org/2000/svg">
<g clip-path="url(#clip0_25895_1650)">
<path d="M8.02938 33.7311V57.4487C8.02938 60.5675 10.5576 63.0957 13.6764 63.0957H29.8664C30.0661 63.0957 30.2576 63.0164 30.3988 62.8752C30.54 62.7341 30.6193 62.5426 30.6194 62.3429V38.6251C30.6194 37.5846 31.4613 36.7427 32.5018 36.7427C33.5423 36.7427 34.3841 37.5846 34.3841 38.6251V62.3427C34.3841 62.4416 34.4036 62.5395 34.4414 62.6309C34.4793 62.7222 34.5348 62.8052 34.6047 62.8752C34.6746 62.9451 34.7576 63.0005 34.849 63.0383C34.9403 63.0762 35.0382 63.0956 35.1371 63.0956H51.3235C54.4423 63.0956 56.9705 60.5674 56.9705 57.4486V33.7311C56.9705 33.6322 56.951 33.5343 56.9132 33.443C56.8753 33.3516 56.8199 33.2686 56.7499 33.1987C56.68 33.1288 56.597 33.0733 56.5056 33.0355C56.4143 32.9977 56.3164 32.9782 56.2175 32.9782H8.78238C8.68349 32.9782 8.58557 32.9977 8.4942 33.0355C8.40284 33.0733 8.31982 33.1288 8.24989 33.1987C8.17997 33.2686 8.1245 33.3516 8.08666 33.443C8.04883 33.5343 8.02936 33.6322 8.02938 33.7311ZM62.6176 14.1546H55.5404C56.4429 12.7999 56.9705 11.1436 56.9705 9.412C56.9705 5.91012 54.9751 2.89725 51.737 1.58112C48.5 0.224497 44.9237 0.941372 42.4761 3.42475L32.5 13.4009L22.5239 3.42475C20.0763 0.941372 16.5 0.224497 13.2629 1.58112C10.0249 2.89725 8.02938 5.91012 8.02938 9.412C8.02938 11.1436 8.557 12.7999 9.4595 14.1546H2.38238C1.32812 14.1546 0.5 14.9817 0.5 16.037V27.3311C0.5 28.3862 1.32812 29.2135 2.38238 29.2135H30.6554V19.8017C30.6554 18.7466 31.4459 17.9561 32.5 17.9194H32.5376C33.5919 17.9194 34.42 18.7466 34.42 19.8017V29.2135H62.6176C63.6719 29.2135 64.5 28.3862 64.5 27.3311V16.037C64.5 14.9817 63.6719 14.1546 62.6176 14.1546ZM16.5376 14.1546C13.9025 14.1546 11.7941 12.0461 11.7941 9.412C11.7941 7.0775 13.2996 5.64725 14.7308 5.04437C15.2574 4.81825 15.898 4.6675 16.5754 4.6675C17.6672 4.6675 18.8714 5.04437 19.8879 6.06087L27.9449 14.1546H16.5376ZM48.4624 14.1546H37.0552L45.1123 6.06087C46.7685 4.44137 48.877 4.48 50.2694 5.04437C51.7004 5.64725 53.206 7.0775 53.206 9.412C53.2059 12.0461 51.0974 14.1546 48.4624 14.1546Z" fill="#C4CDD5"/>
</g>
<defs>
<clipPath id="clip0_25895_1650">
<rect width="64" height="64" fill="white" transform="translate(0.5)"/>
</clipPath>
</defs>
</svg>
