<svg width="24" height="25" viewBox="0 0 24 25" fill="none" xmlns="http://www.w3.org/2000/svg">
<path d="M21 12.5V5C21 4.60218 20.842 4.22064 20.5607 3.93934C20.2794 3.65804 19.8978 3.5 19.5 3.5H4.5C4.10218 3.5 3.72064 3.65804 3.43934 3.93934C3.15804 4.22064 3 4.60218 3 5V20C3 20.3978 3.15804 20.7794 3.43934 21.0607C3.72064 21.342 4.10218 21.5 4.5 21.5H12" stroke="#F4F6F8" stroke-width="1.8" stroke-linecap="round" stroke-linejoin="round"/>
<path d="M16 19.5C17.6569 19.5 19 18.1569 19 16.5C19 14.8431 17.6569 13.5 16 13.5C14.3431 13.5 13 14.8431 13 16.5C13 18.1569 14.3431 19.5 16 19.5Z" stroke="#F4F6F8" stroke-width="1.8"/>
<path d="M18.5 18.5L21 20.5M7 8.5H17M7 12.5H11" stroke="#F4F6F8" stroke-width="1.8" stroke-linecap="round" stroke-linejoin="round"/>
</svg>
