<svg width="24" height="25" viewBox="0 0 24 25" fill="none" xmlns="http://www.w3.org/2000/svg">
<path d="M20.5649 12.095C20.0415 11.5643 19.4266 11.1323 18.7499 10.82C19.2477 10.4084 19.642 9.88558 19.9008 9.29373C20.1597 8.70187 20.2759 8.05749 20.2402 7.41249C20.2044 6.76749 20.0177 6.13991 19.695 5.58029C19.3723 5.02067 18.9227 4.54466 18.3824 4.19059C17.8421 3.83653 17.2261 3.61432 16.5842 3.54185C15.9423 3.46938 15.2924 3.54868 14.6867 3.77337C14.0811 3.99806 13.5366 4.36185 13.0973 4.83545C12.658 5.30904 12.336 5.8792 12.1574 6.49999H11.8424C11.6637 5.8792 11.3418 5.30904 10.9024 4.83545C10.4631 4.36185 9.91868 3.99806 9.31303 3.77337C8.70738 3.54868 8.05742 3.46938 7.41551 3.54185C6.7736 3.61432 6.15768 3.83653 5.61737 4.19059C5.07706 4.54466 4.62745 5.02067 4.30477 5.58029C3.98208 6.13991 3.79534 6.76749 3.75959 7.41249C3.72383 8.05749 3.84006 8.70187 4.09891 9.29373C4.35776 9.88558 4.752 10.4084 5.24987 10.82C4.15575 11.3168 3.22835 12.119 2.5791 13.1301C1.92984 14.1413 1.58634 15.3184 1.58987 16.52C1.58987 16.7806 1.64133 17.0387 1.7413 17.2794C1.84128 17.5202 1.98779 17.7388 2.17245 17.9227C2.3571 18.1067 2.57626 18.2524 2.81735 18.3514C3.05845 18.4505 3.31672 18.501 3.57737 18.5H5.82737C5.76699 18.8366 5.73687 19.178 5.73737 19.52C5.73736 20.0425 5.9439 20.5439 6.31199 20.9148C6.68007 21.2857 7.17985 21.496 7.70237 21.5H16.2974C16.8212 21.498 17.3229 21.2885 17.6926 20.9174C18.0623 20.5463 18.2699 20.0438 18.2699 19.52C18.2704 19.178 18.2402 18.8366 18.1799 18.5H20.4299C20.9537 18.498 21.4554 18.2885 21.8251 17.9174C22.1948 17.5463 22.4024 17.0438 22.4024 16.52C22.4036 15.6976 22.2418 14.8831 21.9264 14.1236C21.611 13.3641 21.1483 12.6746 20.5649 12.095ZM16.1249 4.99999C16.8211 4.99999 17.4887 5.27655 17.981 5.76883C18.4733 6.26112 18.7499 6.92879 18.7499 7.62499C18.7499 8.32118 18.4733 8.98886 17.981 9.48114C17.4887 9.97343 16.8211 10.25 16.1249 10.25C16.0581 9.51094 15.7929 8.80368 15.3572 8.20298C14.9215 7.60228 14.3316 7.13049 13.6499 6.83749C13.8179 6.31055 14.1473 5.8497 14.5913 5.52C15.0354 5.1903 15.5718 5.0084 16.1249 4.99999ZM14.6249 10.625C14.6249 11.1442 14.4709 11.6517 14.1825 12.0834C13.894 12.515 13.4841 12.8515 13.0044 13.0502C12.5248 13.2489 11.997 13.3008 11.4878 13.1995C10.9786 13.0983 10.5108 12.8483 10.1437 12.4811C9.7766 12.114 9.5266 11.6463 9.42531 11.1371C9.32402 10.6279 9.37601 10.1001 9.57469 9.62044C9.77337 9.14079 10.1098 8.73082 10.5415 8.44238C10.9732 8.15394 11.4807 7.99999 11.9999 7.99999C12.6961 7.99999 13.3637 8.27655 13.856 8.76883C14.3483 9.26112 14.6249 9.92879 14.6249 10.625ZM5.24987 7.62499C5.24291 6.99478 5.46358 6.38321 5.87134 5.90264C6.27909 5.42207 6.84655 5.10475 7.46949 5.00899C8.09242 4.91322 8.72899 5.04543 9.26226 5.38134C9.79554 5.71725 10.1897 6.23429 10.3724 6.83749C9.69061 7.13049 9.10071 7.60228 8.66504 8.20298C8.22937 8.80368 7.96413 9.51094 7.89737 10.25C7.55076 10.253 7.207 10.1873 6.88592 10.0567C6.56483 9.92608 6.2728 9.73319 6.02665 9.48914C5.78051 9.24509 5.58514 8.95471 5.45182 8.63476C5.31849 8.3148 5.24986 7.97161 5.24987 7.62499ZM3.57737 17C3.45137 16.998 3.3312 16.9466 3.2428 16.8568C3.1544 16.767 3.10486 16.646 3.10487 16.52C3.10388 15.8933 3.22659 15.2726 3.46595 14.6934C3.70532 14.1143 4.05664 13.588 4.49977 13.1449C4.9429 12.7018 5.46913 12.3504 6.0483 12.1111C6.62747 11.8717 7.24819 11.749 7.87487 11.75H8.03987C8.27073 12.5602 8.74453 13.28 9.39737 13.8125C8.00025 14.4594 6.88603 15.5923 6.26237 17H3.57737ZM16.3274 20H7.70237C7.57637 19.998 7.4562 19.9466 7.3678 19.8568C7.2794 19.767 7.22986 19.646 7.22987 19.52C7.22987 18.2549 7.73242 17.0416 8.62697 16.1471C9.52152 15.2525 10.7348 14.75 11.9999 14.75C13.265 14.75 14.4782 15.2525 15.3728 16.1471C16.2673 17.0416 16.7699 18.2549 16.7699 19.52C16.7699 19.646 16.7203 19.767 16.6319 19.8568C16.5435 19.9466 16.4234 19.998 16.2974 20H16.3274ZM20.4524 17H17.7374C17.1122 15.5951 15.9982 14.4651 14.6024 13.82C15.2565 13.2856 15.7304 12.5629 15.9599 11.75H16.1249C17.3893 11.752 18.6015 12.2552 19.4956 13.1493C20.3897 14.0434 20.8929 15.2555 20.8949 16.52C20.8949 16.646 20.8453 16.767 20.7569 16.8568C20.6685 16.9466 20.5484 16.998 20.4224 17H20.4524Z" fill="#F4F6F8"/>
</svg>
