<svg width="24" height="25" viewBox="0 0 24 25" fill="none" xmlns="http://www.w3.org/2000/svg">
<path d="M5 4.5H21C21.2652 4.5 21.5196 4.39464 21.7071 4.20711C21.8946 4.01957 22 3.76522 22 3.5C22 3.23478 21.8946 2.98043 21.7071 2.79289C21.5196 2.60536 21.2652 2.5 21 2.5H5C4.20435 2.5 3.44129 2.81607 2.87868 3.37868C2.31607 3.94129 2 4.70435 2 5.5V19.5C2 20.2956 2.31607 21.0587 2.87868 21.6213C3.44129 22.1839 4.20435 22.5 5 22.5H10C10.7956 22.5 11.5587 22.1839 12.1213 21.6213C12.6839 21.0587 13 20.2956 13 19.5V14.914L14.293 16.207C14.4816 16.3892 14.7342 16.49 14.9964 16.4877C15.2586 16.4854 15.5094 16.3802 15.6948 16.1948C15.8802 16.0094 15.9854 15.7586 15.9877 15.4964C15.99 15.2342 15.8892 14.9816 15.707 14.793L12.707 11.793C12.6139 11.6997 12.503 11.6259 12.381 11.576C12.1364 11.4749 11.8616 11.4749 11.617 11.576C11.495 11.6259 11.3841 11.6997 11.291 11.793L8.291 14.793C8.10884 14.9816 8.00805 15.2342 8.01033 15.4964C8.0126 15.7586 8.11777 16.0094 8.30318 16.1948C8.48859 16.3802 8.7394 16.4854 9.0016 16.4877C9.26379 16.49 9.5164 16.3892 9.705 16.207L11 14.914V19.5C11 19.7652 10.8946 20.0196 10.7071 20.2071C10.5196 20.3946 10.2652 20.5 10 20.5H5C4.73478 20.5 4.48043 20.3946 4.29289 20.2071C4.10536 20.0196 4 19.7652 4 19.5V8.316C4.32026 8.43444 4.65856 8.49669 5 8.5H20V20.5H16C15.7348 20.5 15.4804 20.6054 15.2929 20.7929C15.1054 20.9804 15 21.2348 15 21.5C15 21.7652 15.1054 22.0196 15.2929 22.2071C15.4804 22.3946 15.7348 22.5 16 22.5H21C21.2652 22.5 21.5196 22.3946 21.7071 22.2071C21.8946 22.0196 22 21.7652 22 21.5V7.5C22 7.23478 21.8946 6.98043 21.7071 6.79289C21.5196 6.60536 21.2652 6.5 21 6.5H5C4.73478 6.5 4.48043 6.39464 4.29289 6.20711C4.10536 6.01957 4 5.76522 4 5.5C4 5.23478 4.10536 4.98043 4.29289 4.79289C4.48043 4.60536 4.73478 4.5 5 4.5Z" fill="#F4F6F8"/>
</svg>
