<svg width="24" height="25" viewBox="0 0 24 25" fill="none" xmlns="http://www.w3.org/2000/svg">
<path d="M11.4406 22.5C10.5994 22.5 9.91517 21.8157 9.91517 20.9746V19.5391L9.80263 19.499C8.95424 19.1964 8.1714 18.7421 7.47589 18.1486L7.38483 18.0708L6.13534 18.7923C5.90395 18.9261 5.64147 18.9966 5.37419 18.997C4.83013 18.997 4.3233 18.7046 4.05153 18.2339L3.20407 16.7661C2.78356 16.0378 3.03403 15.103 3.76246 14.6823L4.98962 13.9739L4.96784 13.8561C4.87538 13.3566 4.83042 12.9131 4.83042 12.5C4.83042 12.0869 4.87538 11.6433 4.9678 11.1439L4.98958 11.0261L3.76241 10.3176C3.03402 9.89708 2.78352 8.96233 3.20403 8.23386L4.05148 6.76602C4.32326 6.29542 4.83013 6.00305 5.37424 6.00305C5.64021 6.00305 5.90339 6.07381 6.1353 6.20767L7.38483 6.92907L7.47589 6.8514C8.17182 6.25775 8.95462 5.80343 9.80258 5.50106L9.91517 5.46089V4.02542C9.91517 3.18432 10.5994 2.5 11.4406 2.5H13.1355C13.9767 2.5 14.6609 3.18432 14.6609 4.02542V5.46089L14.7735 5.50102C15.6214 5.80339 16.4042 6.25771 17.1002 6.85136L17.1912 6.92903L18.4408 6.20763C18.6721 6.07391 18.9346 6.00335 19.2018 6.00301C19.7459 6.00301 20.2528 6.29538 20.5246 6.76602L21.372 8.23386C21.7925 8.96233 21.5421 9.89708 20.8136 10.3176L19.5865 11.0261L19.6083 11.1439C19.7007 11.6433 19.7457 12.0869 19.7457 12.5C19.7457 12.9131 19.7007 13.3566 19.6083 13.856L19.5865 13.9737L20.8137 14.6822C21.5421 15.1029 21.7926 16.0377 21.3721 16.766L20.5246 18.2339C20.2528 18.7045 19.7461 18.9969 19.2021 18.9969H19.2019C18.9347 18.9966 18.6722 18.926 18.4408 18.7922L17.1913 18.0708L17.1003 18.1485C16.4047 18.742 15.6219 19.1964 14.7735 19.4989L14.6609 19.5391V20.9746C14.6609 21.8157 13.9767 22.5 13.1355 22.5H11.4406Z" stroke="#F4F6F8" stroke-width="1.7" stroke-miterlimit="10" stroke-linecap="round" stroke-linejoin="round"/>
<path d="M12.2883 15.891C14.1604 15.891 15.6781 14.3733 15.6781 12.5012C15.6781 10.629 14.1604 9.11133 12.2883 9.11133C10.4161 9.11133 8.89844 10.629 8.89844 12.5012C8.89844 14.3733 10.4161 15.891 12.2883 15.891Z" stroke="#F4F6F8" stroke-width="1.7" stroke-miterlimit="10" stroke-linecap="round" stroke-linejoin="round"/>
</svg>
