<svg width="24" height="25" viewBox="0 0 24 25" fill="none" xmlns="http://www.w3.org/2000/svg">
<path d="M8.99121 6.4845L15.8927 2.5L18.1987 6.4945L8.99121 6.4845Z" stroke="#F4F6F8" stroke-width="2" stroke-linecap="round" stroke-linejoin="round"/>
<path d="M2 7.5C2 7.23478 2.10536 6.98043 2.29289 6.79289C2.48043 6.60536 2.73478 6.5 3 6.5H21C21.2652 6.5 21.5196 6.60536 21.7071 6.79289C21.8946 6.98043 22 7.23478 22 7.5V21.5C22 21.7652 21.8946 22.0196 21.7071 22.2071C21.5196 22.3946 21.2652 22.5 21 22.5H3C2.73478 22.5 2.48043 22.3946 2.29289 22.2071C2.10536 22.0196 2 21.7652 2 21.5V7.5Z" stroke="#F4F6F8" stroke-width="2" stroke-linejoin="round"/>
<path d="M17.625 17H22V12H17.625C16.175 12 15 13.1195 15 14.5C15 15.8805 16.175 17 17.625 17Z" stroke="#F4F6F8" stroke-width="2" stroke-linejoin="round"/>
<path d="M22 8.75V20.75" stroke="#F4F6F8" stroke-width="2" stroke-linecap="round"/>
</svg>
