<svg width="24" height="25" viewBox="0 0 24 25" fill="none" xmlns="http://www.w3.org/2000/svg">
<path d="M2.5 4.5C2.5 4.23478 2.60536 3.98043 2.79289 3.79289C2.98043 3.60536 3.23478 3.5 3.5 3.5H9.5L12 6.5H20.5C20.7652 6.5 21.0196 6.60536 21.2071 6.79289C21.3946 6.98043 21.5 7.23478 21.5 7.5V20.5C21.5 20.7652 21.3946 21.0196 21.2071 21.2071C21.0196 21.3946 20.7652 21.5 20.5 21.5H3.5C3.23478 21.5 2.98043 21.3946 2.79289 21.2071C2.60536 21.0196 2.5 20.7652 2.5 20.5V4.5Z" stroke="#F4F6F8" stroke-width="2" stroke-linejoin="round"/>
<path d="M10.5 12L8 14.5L10.5 17" stroke="#F4F6F8" stroke-width="1.8" stroke-linecap="square" stroke-linejoin="round"/>
<path d="M8 13.6C7.50294 13.6 7.1 14.0029 7.1 14.5C7.1 14.9971 7.50294 15.4 8 15.4V13.6ZM16 14.5V15.4C16.4971 15.4 16.9 14.9971 16.9 14.5H16ZM16.9 11.5V10.6H15.1V11.5H16.9ZM8 15.4H16V13.6H8V15.4ZM16.9 14.5V11.5H15.1V14.5H16.9Z" fill="#F4F6F8"/>
</svg>
